<svg xmlns:xlink="http://www.w3.org/1999/xlink" xmlns="http://www.w3.org/2000/svg" version="1.1"
     viewBox="0 0 13.10057319563378 4.745065383133778"><g transform="matrix(1,0,0,1,4.460071317464434,1.3317201915668895)"><g><path d=" M 0.1485 1.05 Q 0.132 1.05 0.1215 1.0395 Q 0.111 1.0290000000000001 0.111 1.0125 L 0.111 0.03750000000000009 Q 0.111 0.02100000000000013 0.1215 0.010499999999999954 Q 0.132 0 0.1485 0 L 0.8175 0 Q 0.834 0 0.8445 0.010499999999999954 Q 0.855 0.02100000000000013 0.855 0.03750000000000009 L 0.855 0.16500000000000004 Q 0.855 0.1815 0.8445 0.19200000000000006 Q 0.834 0.2025 0.8175 0.2025 L 0.34500000000000003 0.2025 L 0.34500000000000003 0.45600000000000007 L 0.7875 0.45600000000000007 Q 0.804 0.45600000000000007 0.8145 0.4665 Q 0.8250000000000001 0.477 0.8250000000000001 0.49350000000000005 L 0.8250000000000001 0.621 Q 0.8250000000000001 0.636 0.8145 0.6465000000000001 Q 0.804 0.657 0.7875 0.657 L 0.34500000000000003 0.657 L 0.34500000000000003 1.0125 Q 0.34500000000000003 1.0290000000000001 0.3345 1.0395 Q 0.324 1.05 0.3075 1.05 L 0.1485 1.05 Z M 1.076921630859375 1.05 Q 1.060421630859375 1.05 1.049921630859375 1.0395 Q 1.0394216308593751 1.0290000000000001 1.0394216308593751 1.0125 L 1.0394216308593751 0.03750000000000009 Q 1.0394216308593751 0.02100000000000013 1.049921630859375 0.010499999999999954 Q 1.060421630859375 0 1.076921630859375 0 L 1.243421630859375 0 Q 1.259921630859375 0 1.270421630859375 0.010499999999999954 Q 1.280921630859375 0.02100000000000013 1.280921630859375 0.03750000000000009 L 1.280921630859375 0.849 L 1.745921630859375 0.849 Q 1.762421630859375 0.849 1.7729216308593752 0.8595 Q 1.783421630859375 0.8700000000000001 1.783421630859375 0.8865000000000001 L 1.783421630859375 1.0125 Q 1.783421630859375 1.0290000000000001 1.7729216308593752 1.0395 Q 1.762421630859375 1.05 1.745921630859375 1.05 L 1.076921630859375 1.05 Z M 1.97384912109375 1.05 Q 1.95734912109375 1.05 1.94684912109375 1.0395 Q 1.93634912109375 1.0290000000000001 1.93634912109375 1.0125 L 1.93634912109375 0.03750000000000009 Q 1.93634912109375 0.02100000000000013 1.94684912109375 0.010499999999999954 Q 1.95734912109375 0 1.97384912109375 0 L 2.65334912109375 0 Q 2.6698491210937503 0 2.68034912109375 0.010499999999999954 Q 2.69084912109375 0.02100000000000013 2.69084912109375 0.03750000000000009 L 2.69084912109375 0.15749999999999997 Q 2.69084912109375 0.1725 2.68034912109375 0.18300000000000005 Q 2.6698491210937503 0.1935 2.65334912109375 0.1935 L 2.16734912109375 0.1935 L 2.16734912109375 0.42900000000000005 L 2.62034912109375 0.42900000000000005 Q 2.63684912109375 0.42900000000000005 2.6473491210937503 0.4395 Q 2.65784912109375 0.45000000000000007 2.65784912109375 0.4665 L 2.65784912109375 0.5775 Q 2.65784912109375 0.5925 2.6473491210937503 0.603 Q 2.63684912109375 0.6135 2.62034912109375 0.6135 L 2.16734912109375 0.6135 L 2.16734912109375 0.8565 L 2.66534912109375 0.8565 Q 2.68184912109375 0.8565 2.6923491210937502 0.867 Q 2.70284912109375 0.8775000000000001 2.70284912109375 0.894 L 2.70284912109375 1.0125 Q 2.70284912109375 1.0290000000000001 2.6923491210937502 1.0395 Q 2.68184912109375 1.05 2.66534912109375 1.05 L 1.97384912109375 1.05 Z M 2.933764892578125 1.05 Q 2.917264892578125 1.05 2.906764892578125 1.0395 Q 2.896264892578125 1.0290000000000001 2.896264892578125 1.0125 L 2.896264892578125 0.03750000000000009 Q 2.896264892578125 0.02100000000000013 2.906764892578125 0.010499999999999954 Q 2.917264892578125 0 2.933764892578125 0 L 3.613264892578125 0 Q 3.629764892578125 0 3.640264892578125 0.010499999999999954 Q 3.650764892578125 0.02100000000000013 3.650764892578125 0.03750000000000009 L 3.650764892578125 0.15749999999999997 Q 3.650764892578125 0.1725 3.640264892578125 0.18300000000000005 Q 3.629764892578125 0.1935 3.613264892578125 0.1935 L 3.127264892578125 0.1935 L 3.127264892578125 0.42900000000000005 L 3.580264892578125 0.42900000000000005 Q 3.596764892578125 0.42900000000000005 3.607264892578125 0.4395 Q 3.617764892578125 0.45000000000000007 3.617764892578125 0.4665 L 3.617764892578125 0.5775 Q 3.617764892578125 0.5925 3.607264892578125 0.603 Q 3.596764892578125 0.6135 3.580264892578125 0.6135 L 3.127264892578125 0.6135 L 3.127264892578125 0.8565 L 3.625264892578125 0.8565 Q 3.641764892578125 0.8565 3.652264892578125 0.867 Q 3.662764892578125 0.8775000000000001 3.662764892578125 0.894 L 3.662764892578125 1.0125 Q 3.662764892578125 1.0290000000000001 3.652264892578125 1.0395 Q 3.641764892578125 1.05 3.625264892578125 1.05 L 2.933764892578125 1.05 Z M 4.1246806640625 1.05 Q 4.1081806640625 1.05 4.0976806640625 1.0395 Q 4.0871806640625 1.0290000000000001 4.0871806640625 1.0125 L 4.0871806640625 0.20850000000000002 L 3.8141806640625 0.20850000000000002 Q 3.7991806640625 0.20850000000000002 3.7886806640625 0.19800000000000006 Q 3.7781806640625 0.1875 3.7781806640625 0.1725 L 3.7781806640625 0.03750000000000009 Q 3.7781806640625 0.02100000000000013 3.7886806640625 0.010499999999999954 Q 3.7991806640625 0 3.8141806640625 0 L 4.6001806640625 0 Q 4.6166806640625 0 4.6271806640625 0.010499999999999954 Q 4.637680664062501 0.02100000000000013 4.637680664062501 0.03750000000000009 L 4.637680664062501 0.1725 Q 4.637680664062501 0.1875 4.6271806640625 0.19800000000000006 Q 4.6166806640625 0.20850000000000002 4.6001806640625 0.20850000000000002 L 4.3286806640625 0.20850000000000002 L 4.3286806640625 1.0125 Q 4.3286806640625 1.0290000000000001 4.3181806640625 1.0395 Q 4.3076806640625005 1.05 4.2911806640625 1.05 L 4.1246806640625 1.05 Z M 4.8340957031250005 1.05 Q 4.819095703125 1.05 4.807845703125 1.0395 Q 4.796595703125 1.0290000000000001 4.796595703125 1.0125 L 4.796595703125 0.03750000000000009 Q 4.796595703125 0.02100000000000013 4.807845703125 0.010499999999999954 Q 4.819095703125 0 4.8340957031250005 0 L 4.973595703125 0 Q 4.996095703125 0 5.007345703125 0.01200000000000001 Q 5.018595703125 0.02400000000000002 5.0230957031250005 0.030000000000000027 L 5.299095703125 0.5385 L 5.578095703125 0.030000000000000027 Q 5.581095703125 0.02400000000000002 5.592345703125 0.01200000000000001 Q 5.603595703125 0 5.626095703125 0 L 5.765595703125 0 Q 5.782095703125 0 5.792595703125 0.010499999999999954 Q 5.803095703125 0.02100000000000013 5.803095703125 0.03750000000000009 L 5.803095703125 1.0125 Q 5.803095703125 1.0290000000000001 5.792595703125 1.0395 Q 5.782095703125 1.05 5.765595703125 1.05 L 5.612595703125001 1.05 Q 5.597595703125 1.05 5.587095703125 1.0395 Q 5.576595703125 1.0290000000000001 5.576595703125 1.0125 L 5.576595703125 0.4065000000000001 L 5.386095703125 0.7635000000000001 Q 5.378595703125001 0.777 5.366595703125 0.7875000000000001 Q 5.354595703125 0.798 5.335095703125 0.798 L 5.264595703125 0.798 Q 5.245095703125 0.798 5.2330957031250005 0.7875000000000001 Q 5.221095703125 0.777 5.213595703125 0.7635000000000001 L 5.0230957031250005 0.4065000000000001 L 5.0230957031250005 1.0125 Q 5.0230957031250005 1.0290000000000001 5.012595703125 1.0395 Q 5.002095703125001 1.05 4.987095703125 1.05 L 4.8340957031250005 1.05 Z M 5.97855029296875 1.05 Q 5.9650502929687494 1.05 5.95605029296875 1.0402500000000001 Q 5.94705029296875 1.0305 5.94705029296875 1.0185 Q 5.94705029296875 1.0110000000000001 5.94855029296875 1.0050000000000001 L 6.30555029296875 0.04049999999999998 Q 6.31005029296875 0.02400000000000002 6.32355029296875 0.01200000000000001 Q 6.33705029296875 0 6.36105029296875 0 L 6.5530502929687495 0 Q 6.5770502929687495 0 6.59055029296875 0.01200000000000001 Q 6.60405029296875 0.02400000000000002 6.60855029296875 0.04049999999999998 L 6.96555029296875 1.0050000000000001 Q 6.96705029296875 1.0110000000000001 6.96705029296875 1.0185 Q 6.96705029296875 1.0305 6.95805029296875 1.0402500000000001 Q 6.949050292968749 1.05 6.93555029296875 1.05 L 6.77955029296875 1.05 Q 6.75705029296875 1.05 6.74655029296875 1.0395 Q 6.73605029296875 1.0290000000000001 6.73305029296875 1.02 L 6.6685502929687495 0.8520000000000001 L 6.245550292968749 0.8520000000000001 L 6.18105029296875 1.02 Q 6.1780502929687495 1.0290000000000001 6.16755029296875 1.0395 Q 6.15705029296875 1.05 6.13455029296875 1.05 L 5.97855029296875 1.05 Z M 6.30105029296875 0.6585000000000001 L 6.61155029296875 0.6585000000000001 L 6.45705029296875 0.22650000000000003 L 6.30105029296875 0.6585000000000001 Z M 7.148519531250001 1.05 Q 7.13201953125 1.05 7.121519531250001 1.0395 Q 7.11101953125 1.0290000000000001 7.11101953125 1.0125 L 7.11101953125 0.03750000000000009 Q 7.11101953125 0.02100000000000013 7.121519531250001 0.010499999999999954 Q 7.13201953125 0 7.148519531250001 0 L 7.55801953125 0 Q 7.67951953125 0 7.76876953125 0.03750000000000009 Q 7.85801953125 0.07500000000000007 7.90826953125 0.15075000000000005 Q 7.95851953125 0.22650000000000003 7.95851953125 0.3390000000000001 Q 7.95851953125 0.45300000000000007 7.90826953125 0.52725 Q 7.85801953125 0.6015 7.76876953125 0.6375 Q 7.67951953125 0.6735 7.55801953125 0.6735 L 7.357019531250001 0.6735 L 7.357019531250001 1.0125 Q 7.357019531250001 1.0290000000000001 7.34651953125 1.0395 Q 7.336019531250001 1.05 7.31951953125 1.05 L 7.148519531250001 1.05 Z M 7.3525195312500005 0.48750000000000004 L 7.55051953125 0.48750000000000004 Q 7.62701953125 0.48750000000000004 7.669769531250001 0.45000000000000007 Q 7.712519531250001 0.4125 7.712519531250001 0.3375 Q 7.712519531250001 0.2715000000000001 7.67426953125 0.22950000000000004 Q 7.6360195312500005 0.1875 7.55051953125 0.1875 L 7.3525195312500005 0.1875 L 7.3525195312500005 0.48750000000000004 Z" fill="#202020" fill-rule="nonzero"></path></g><g><path d=" M 0.03 2.081625 Q 0.024 2.081625 0.0195 2.0771249999999997 Q 0.015 2.072625 0.015 2.0666249999999997 Q 0.015 2.062875 0.01575 2.058375 L 0.20175 1.5731249999999997 Q 0.20475000000000002 1.5656249999999998 0.21 1.5611249999999999 Q 0.21525 1.556625 0.22575 1.556625 L 0.27675 1.556625 Q 0.28725 1.556625 0.2925 1.5611249999999999 Q 0.29775 1.5656249999999998 0.30075 1.5731249999999997 L 0.486 2.058375 Q 0.4875 2.062875 0.4875 2.0666249999999997 Q 0.4875 2.072625 0.483 2.0771249999999997 Q 0.47850000000000004 2.081625 0.47250000000000003 2.081625 L 0.43425 2.081625 Q 0.42525 2.081625 0.421125 2.0771249999999997 Q 0.417 2.072625 0.41550000000000004 2.068875 L 0.37425 1.9623749999999998 L 0.12825 1.9623749999999998 L 0.08700000000000001 2.068875 Q 0.08625000000000001 2.072625 0.08175 2.0771249999999997 Q 0.07725 2.081625 0.06825 2.081625 L 0.03 2.081625 Z M 0.15 1.8978749999999998 L 0.3525 1.8978749999999998 L 0.25125000000000003 1.6316249999999999 L 0.15 1.8978749999999998 Z M 0.5924871826171876 2.081625 Q 0.5842371826171876 2.081625 0.5797371826171875 2.0767499999999997 Q 0.5752371826171876 2.071875 0.5752371826171876 2.0643749999999996 L 0.5752371826171876 1.5746249999999997 Q 0.5752371826171876 1.5663749999999999 0.5797371826171875 1.5614999999999997 Q 0.5842371826171876 1.556625 0.5924871826171876 1.556625 L 0.7627371826171876 1.556625 Q 0.8399871826171876 1.556625 0.8872371826171876 1.579875 Q 0.9344871826171876 1.603125 0.9562371826171876 1.6484999999999999 Q 0.9779871826171875 1.6938749999999998 0.9787371826171876 1.7598749999999999 Q 0.9794871826171876 1.7936249999999998 0.9794871826171876 1.8191249999999999 Q 0.9794871826171876 1.8446249999999997 0.9787371826171876 1.8776249999999999 Q 0.9772371826171875 1.9466249999999998 0.9558621826171876 1.9919999999999998 Q 0.9344871826171876 2.037375 0.8883621826171876 2.0595 Q 0.8422371826171875 2.081625 0.7664871826171875 2.081625 L 0.5924871826171876 2.081625 Z M 0.6487371826171876 2.0178749999999996 L 0.7627371826171876 2.0178749999999996 Q 0.8144871826171876 2.0178749999999996 0.8452371826171876 2.003625 Q 0.8759871826171876 1.989375 0.8898621826171875 1.9578749999999998 Q 0.9037371826171876 1.9263749999999997 0.9044871826171876 1.8746249999999998 Q 0.9059871826171876 1.8521249999999998 0.9059871826171876 1.8352499999999998 Q 0.9059871826171876 1.8183749999999999 0.9059871826171876 1.8014999999999999 Q 0.9059871826171876 1.784625 0.9044871826171876 1.7628749999999997 Q 0.9029871826171876 1.6901249999999999 0.8699871826171875 1.6552499999999999 Q 0.8369871826171875 1.620375 0.7589871826171876 1.620375 L 0.6487371826171876 1.620375 L 0.6487371826171876 2.0178749999999996 Z M 1.2411785888671876 2.081625 Q 1.2299285888671876 2.081625 1.2235535888671876 2.0763749999999996 Q 1.2171785888671875 2.071125 1.2134285888671876 2.062125 L 1.0461785888671877 1.579875 Q 1.0446785888671877 1.5753749999999997 1.0446785888671877 1.5716249999999998 Q 1.0446785888671877 1.5656249999999998 1.0491785888671876 1.5611249999999999 Q 1.0536785888671876 1.556625 1.0596785888671876 1.556625 L 1.0986785888671877 1.556625 Q 1.1076785888671876 1.556625 1.1125535888671876 1.5614999999999997 Q 1.1174285888671875 1.5663749999999999 1.1189285888671876 1.5701249999999998 L 1.2651785888671876 1.995375 L 1.4121785888671876 1.5701249999999998 Q 1.4136785888671877 1.5663749999999999 1.4181785888671876 1.5614999999999997 Q 1.4226785888671876 1.556625 1.4316785888671877 1.556625 L 1.4706785888671876 1.556625 Q 1.4766785888671876 1.556625 1.4815535888671876 1.5611249999999999 Q 1.4864285888671875 1.5656249999999998 1.4864285888671875 1.5716249999999998 Q 1.4864285888671875 1.5753749999999997 1.4849285888671877 1.579875 L 1.3169285888671876 2.062125 Q 1.3139285888671877 2.071125 1.3075535888671876 2.0763749999999996 Q 1.3011785888671876 2.081625 1.2899285888671876 2.081625 L 1.2411785888671876 2.081625 Z M 1.5118963623046877 2.081625 Q 1.5058963623046877 2.081625 1.5013963623046878 2.0771249999999997 Q 1.4968963623046876 2.072625 1.4968963623046876 2.0666249999999997 Q 1.4968963623046876 2.062875 1.4976463623046876 2.058375 L 1.6836463623046878 1.5731249999999997 Q 1.6866463623046877 1.5656249999999998 1.6918963623046877 1.5611249999999999 Q 1.6971463623046876 1.556625 1.7076463623046876 1.556625 L 1.7586463623046877 1.556625 Q 1.7691463623046877 1.556625 1.7743963623046877 1.5611249999999999 Q 1.7796463623046876 1.5656249999999998 1.7826463623046878 1.5731249999999997 L 1.9678963623046877 2.058375 Q 1.9693963623046877 2.062875 1.9693963623046877 2.0666249999999997 Q 1.9693963623046877 2.072625 1.9648963623046876 2.0771249999999997 Q 1.9603963623046878 2.081625 1.9543963623046876 2.081625 L 1.9161463623046877 2.081625 Q 1.9071463623046876 2.081625 1.9030213623046877 2.0771249999999997 Q 1.8988963623046877 2.072625 1.8973963623046877 2.068875 L 1.8561463623046877 1.9623749999999998 L 1.6101463623046877 1.9623749999999998 L 1.5688963623046877 2.068875 Q 1.5681463623046876 2.072625 1.5636463623046877 2.0771249999999997 Q 1.5591463623046877 2.081625 1.5501463623046876 2.081625 L 1.5118963623046877 2.081625 Z M 1.6318963623046876 1.8978749999999998 L 1.8343963623046877 1.8978749999999998 L 1.7331463623046877 1.6316249999999999 L 1.6318963623046876 1.8978749999999998 Z M 2.0743835449218753 2.081625 Q 2.0661335449218754 2.081625 2.0616335449218752 2.0767499999999997 Q 2.057133544921875 2.071875 2.057133544921875 2.0643749999999996 L 2.057133544921875 1.5746249999999997 Q 2.057133544921875 1.5663749999999999 2.0616335449218752 1.5614999999999997 Q 2.0661335449218754 1.556625 2.0743835449218753 1.556625 L 2.1088835449218752 1.556625 Q 2.117883544921875 1.556625 2.1223835449218753 1.5607499999999999 Q 2.126883544921875 1.5648749999999998 2.127633544921875 1.5671249999999999 L 2.376633544921875 1.9496249999999997 L 2.376633544921875 1.5746249999999997 Q 2.376633544921875 1.5663749999999999 2.3811335449218753 1.5614999999999997 Q 2.385633544921875 1.556625 2.3938835449218754 1.556625 L 2.4298835449218754 1.556625 Q 2.4381335449218753 1.556625 2.4430085449218755 1.5614999999999997 Q 2.447883544921875 1.5663749999999999 2.447883544921875 1.5746249999999997 L 2.447883544921875 2.063625 Q 2.447883544921875 2.071125 2.4430085449218755 2.0763749999999996 Q 2.4381335449218753 2.081625 2.4306335449218754 2.081625 L 2.3946335449218754 2.081625 Q 2.386383544921875 2.081625 2.3822585449218754 2.0771249999999997 Q 2.3781335449218752 2.072625 2.376633544921875 2.071125 L 2.128383544921875 1.6923749999999997 L 2.128383544921875 2.0643749999999996 Q 2.128383544921875 2.071875 2.1235085449218754 2.0767499999999997 Q 2.118633544921875 2.081625 2.1103835449218753 2.081625 L 2.0743835449218753 2.081625 Z M 2.7748432617187504 2.0891249999999997 Q 2.7058432617187504 2.0891249999999997 2.6604682617187505 2.063625 Q 2.6150932617187506 2.038125 2.5918432617187506 1.9923749999999998 Q 2.5685932617187506 1.9466249999999998 2.5663432617187505 1.8858749999999997 Q 2.5655932617187505 1.855125 2.5655932617187505 1.819875 Q 2.5655932617187505 1.784625 2.5663432617187505 1.7523749999999998 Q 2.5685932617187506 1.6916249999999997 2.5918432617187506 1.6458749999999998 Q 2.6150932617187506 1.6001249999999998 2.6604682617187505 1.5746249999999997 Q 2.7058432617187504 1.5491249999999999 2.7748432617187504 1.5491249999999999 Q 2.8265932617187506 1.5491249999999999 2.8655932617187507 1.5633749999999997 Q 2.9045932617187504 1.5776249999999998 2.9304682617187505 1.6016249999999999 Q 2.9563432617187506 1.6256249999999999 2.9698432617187507 1.6552499999999999 Q 2.9833432617187503 1.684875 2.9848432617187504 1.7163749999999998 Q 2.9855932617187504 1.7231249999999998 2.9807182617187507 1.7276249999999997 Q 2.9758432617187505 1.732125 2.9690932617187507 1.732125 L 2.9278432617187504 1.732125 Q 2.9210932617187506 1.732125 2.9162182617187504 1.7283749999999998 Q 2.9113432617187507 1.7246249999999999 2.9090932617187506 1.7148749999999997 Q 2.8963432617187506 1.6563749999999997 2.8614682617187506 1.6346249999999998 Q 2.8265932617187506 1.6128749999999998 2.7748432617187504 1.6128749999999998 Q 2.7140932617187508 1.6128749999999998 2.6788432617187503 1.6469999999999998 Q 2.6435932617187508 1.6811249999999998 2.6413432617187507 1.756125 Q 2.6390932617187506 1.8176249999999998 2.6413432617187507 1.8821249999999998 Q 2.6435932617187508 1.9571249999999998 2.6788432617187503 1.9912499999999997 Q 2.7140932617187508 2.025375 2.7748432617187504 2.025375 Q 2.8265932617187506 2.025375 2.8614682617187506 2.003625 Q 2.8963432617187506 1.9818749999999998 2.9090932617187506 1.9233749999999998 Q 2.9113432617187507 1.913625 2.9162182617187504 1.9098749999999998 Q 2.9210932617187506 1.9061249999999998 2.9278432617187504 1.9061249999999998 L 2.9690932617187507 1.9061249999999998 Q 2.9758432617187505 1.9061249999999998 2.9807182617187507 1.9102499999999998 Q 2.9855932617187504 1.9143749999999997 2.9848432617187504 1.9211249999999997 Q 2.9833432617187503 1.9526249999999998 2.9698432617187507 1.9826249999999999 Q 2.9563432617187506 2.012625 2.9304682617187505 2.036625 Q 2.9045932617187504 2.060625 2.8655932617187507 2.074875 Q 2.8265932617187506 2.0891249999999997 2.7748432617187504 2.0891249999999997 Z M 3.1100592041015633 2.081625 Q 3.1018092041015635 2.081625 3.0973092041015633 2.0767499999999997 Q 3.092809204101563 2.071875 3.092809204101563 2.0643749999999996 L 3.092809204101563 1.5746249999999997 Q 3.092809204101563 1.5663749999999999 3.0973092041015633 1.5614999999999997 Q 3.1018092041015635 1.556625 3.1100592041015633 1.556625 L 3.419809204101563 1.556625 Q 3.4280592041015634 1.556625 3.4325592041015636 1.5614999999999997 Q 3.4370592041015633 1.5663749999999999 3.4370592041015633 1.5746249999999997 L 3.4370592041015633 1.603125 Q 3.4370592041015633 1.6113749999999998 3.4325592041015636 1.615875 Q 3.4280592041015634 1.620375 3.419809204101563 1.620375 L 3.164809204101563 1.620375 L 3.164809204101563 1.784625 L 3.4033092041015633 1.784625 Q 3.411559204101563 1.784625 3.4160592041015634 1.7894999999999999 Q 3.420559204101563 1.7943749999999998 3.420559204101563 1.802625 L 3.420559204101563 1.8303749999999999 Q 3.420559204101563 1.837875 3.4160592041015634 1.8427499999999999 Q 3.411559204101563 1.8476249999999999 3.4033092041015633 1.8476249999999999 L 3.164809204101563 1.8476249999999999 L 3.164809204101563 2.0178749999999996 L 3.4258092041015633 2.0178749999999996 Q 3.434059204101563 2.0178749999999996 3.4385592041015633 2.022375 Q 3.4430592041015635 2.026875 3.4430592041015635 2.035125 L 3.4430592041015635 2.0643749999999996 Q 3.4430592041015635 2.071875 3.4385592041015633 2.0767499999999997 Q 3.434059204101563 2.081625 3.4258092041015633 2.081625 L 3.1100592041015633 2.081625 Z M 3.572026977539063 2.081625 Q 3.5637769775390633 2.081625 3.559276977539063 2.0767499999999997 Q 3.554776977539063 2.071875 3.554776977539063 2.0643749999999996 L 3.554776977539063 1.5746249999999997 Q 3.554776977539063 1.5663749999999999 3.559276977539063 1.5614999999999997 Q 3.5637769775390633 1.556625 3.572026977539063 1.556625 L 3.7422769775390634 1.556625 Q 3.8195269775390632 1.556625 3.8667769775390632 1.579875 Q 3.9140269775390633 1.603125 3.935776977539063 1.6484999999999999 Q 3.957526977539063 1.6938749999999998 3.958276977539063 1.7598749999999999 Q 3.959026977539063 1.7936249999999998 3.959026977539063 1.8191249999999999 Q 3.959026977539063 1.8446249999999997 3.958276977539063 1.8776249999999999 Q 3.956776977539063 1.9466249999999998 3.935401977539063 1.9919999999999998 Q 3.9140269775390633 2.037375 3.8679019775390633 2.0595 Q 3.8217769775390633 2.081625 3.746026977539063 2.081625 L 3.572026977539063 2.081625 Z M 3.628276977539063 2.0178749999999996 L 3.7422769775390634 2.0178749999999996 Q 3.794026977539063 2.0178749999999996 3.824776977539063 2.003625 Q 3.8555269775390633 1.989375 3.8694019775390633 1.9578749999999998 Q 3.883276977539063 1.9263749999999997 3.884026977539063 1.8746249999999998 Q 3.885526977539063 1.8521249999999998 3.885526977539063 1.8352499999999998 Q 3.885526977539063 1.8183749999999999 3.885526977539063 1.8014999999999999 Q 3.885526977539063 1.784625 3.884026977539063 1.7628749999999997 Q 3.8825269775390634 1.6901249999999999 3.849526977539063 1.6552499999999999 Q 3.816526977539063 1.620375 3.7385269775390633 1.620375 L 3.628276977539063 1.620375 L 3.628276977539063 2.0178749999999996 Z M 4.383478637695314 2.081625 Q 4.375978637695313 2.081625 4.371103637695313 2.0767499999999997 Q 4.366228637695313 2.071875 4.366228637695313 2.0643749999999996 L 4.366228637695313 1.6233749999999998 L 4.222228637695313 1.6233749999999998 Q 4.2147286376953135 1.6233749999999998 4.209853637695313 1.6184999999999998 Q 4.204978637695313 1.6136249999999999 4.204978637695313 1.6061249999999998 L 4.204978637695313 1.5746249999999997 Q 4.204978637695313 1.5663749999999999 4.209853637695313 1.5614999999999997 Q 4.2147286376953135 1.556625 4.222228637695313 1.556625 L 4.583728637695313 1.556625 Q 4.591978637695314 1.556625 4.596853637695313 1.5614999999999997 Q 4.601728637695313 1.5663749999999999 4.601728637695313 1.5746249999999997 L 4.601728637695313 1.6061249999999998 Q 4.601728637695313 1.6136249999999999 4.596853637695313 1.6184999999999998 Q 4.591978637695314 1.6233749999999998 4.583728637695313 1.6233749999999998 L 4.440478637695313 1.6233749999999998 L 4.440478637695313 2.0643749999999996 Q 4.440478637695313 2.071875 4.435603637695313 2.0767499999999997 Q 4.430728637695314 2.081625 4.422478637695313 2.081625 L 4.383478637695314 2.081625 Z M 4.710463256835938 2.081625 Q 4.702213256835939 2.081625 4.6977132568359385 2.0767499999999997 Q 4.693213256835938 2.071875 4.693213256835938 2.0643749999999996 L 4.693213256835938 1.5746249999999997 Q 4.693213256835938 1.5663749999999999 4.6977132568359385 1.5614999999999997 Q 4.702213256835939 1.556625 4.710463256835938 1.556625 L 4.893463256835939 1.556625 Q 4.9782132568359385 1.556625 5.027713256835939 1.5963749999999999 Q 5.077213256835939 1.6361249999999998 5.077213256835939 1.714125 Q 5.077213256835939 1.7718749999999999 5.0483382568359385 1.80825 Q 5.019463256835938 1.8446249999999997 4.969963256835938 1.8588749999999998 L 5.085463256835938 2.058375 Q 5.087713256835938 2.062875 5.087713256835938 2.0666249999999997 Q 5.087713256835938 2.072625 5.082838256835939 2.0771249999999997 Q 5.077963256835939 2.081625 5.0719632568359385 2.081625 L 5.035963256835939 2.081625 Q 5.0232132568359384 2.081625 5.017213256835938 2.074875 Q 5.011213256835939 2.0681249999999998 5.006713256835939 2.061375 L 4.897963256835938 1.8708749999999998 L 4.7667132568359385 1.8708749999999998 L 4.7667132568359385 2.0643749999999996 Q 4.7667132568359385 2.071875 4.761838256835938 2.0767499999999997 Q 4.756963256835938 2.081625 4.748713256835939 2.081625 L 4.710463256835938 2.081625 Z M 4.7667132568359385 1.8071249999999999 L 4.890463256835939 1.8071249999999999 Q 4.946713256835938 1.8071249999999999 4.974463256835938 1.7834999999999999 Q 5.0022132568359385 1.7598749999999999 5.0022132568359385 1.7133749999999999 Q 5.0022132568359385 1.6676249999999997 4.974838256835938 1.643625 Q 4.947463256835938 1.6196249999999999 4.890463256835939 1.6196249999999999 L 4.7667132568359385 1.6196249999999999 L 4.7667132568359385 1.8071249999999999 Z M 5.156689453125002 2.081625 Q 5.150689453125001 2.081625 5.146189453125001 2.0771249999999997 Q 5.141689453125001 2.072625 5.141689453125001 2.0666249999999997 Q 5.141689453125001 2.062875 5.142439453125001 2.058375 L 5.328439453125001 1.5731249999999997 Q 5.331439453125001 1.5656249999999998 5.336689453125001 1.5611249999999999 Q 5.3419394531250015 1.556625 5.352439453125001 1.556625 L 5.403439453125001 1.556625 Q 5.413939453125002 1.556625 5.419189453125002 1.5611249999999999 Q 5.424439453125001 1.5656249999999998 5.427439453125001 1.5731249999999997 L 5.612689453125001 2.058375 Q 5.614189453125001 2.062875 5.614189453125001 2.0666249999999997 Q 5.614189453125001 2.072625 5.609689453125001 2.0771249999999997 Q 5.605189453125002 2.081625 5.5991894531250015 2.081625 L 5.560939453125002 2.081625 Q 5.5519394531250015 2.081625 5.547814453125001 2.0771249999999997 Q 5.543689453125001 2.072625 5.542189453125001 2.068875 L 5.500939453125001 1.9623749999999998 L 5.254939453125002 1.9623749999999998 L 5.213689453125001 2.068875 Q 5.212939453125001 2.072625 5.208439453125002 2.0771249999999997 Q 5.203939453125002 2.081625 5.194939453125001 2.081625 L 5.156689453125002 2.081625 Z M 5.276689453125002 1.8978749999999998 L 5.479189453125001 1.8978749999999998 L 5.377939453125001 1.6316249999999999 L 5.276689453125002 1.8978749999999998 Z M 5.8811762695312515 2.0891249999999997 Q 5.8121762695312515 2.0891249999999997 5.766801269531252 2.063625 Q 5.721426269531252 2.038125 5.698176269531252 1.9923749999999998 Q 5.674926269531252 1.9466249999999998 5.672676269531252 1.8858749999999997 Q 5.671926269531252 1.855125 5.671926269531252 1.819875 Q 5.671926269531252 1.784625 5.672676269531252 1.7523749999999998 Q 5.674926269531252 1.6916249999999997 5.698176269531252 1.6458749999999998 Q 5.721426269531252 1.6001249999999998 5.766801269531252 1.5746249999999997 Q 5.8121762695312515 1.5491249999999999 5.8811762695312515 1.5491249999999999 Q 5.932926269531252 1.5491249999999999 5.971926269531251 1.5633749999999997 Q 6.010926269531252 1.5776249999999998 6.036801269531251 1.6016249999999999 Q 6.062676269531251 1.6256249999999999 6.076176269531252 1.6552499999999999 Q 6.089676269531251 1.684875 6.0911762695312515 1.7163749999999998 Q 6.0919262695312515 1.7231249999999998 6.087051269531251 1.7276249999999997 Q 6.082176269531252 1.732125 6.075426269531252 1.732125 L 6.034176269531252 1.732125 Q 6.027426269531252 1.732125 6.0225512695312515 1.7283749999999998 Q 6.017676269531251 1.7246249999999999 6.015426269531251 1.7148749999999997 Q 6.002676269531252 1.6563749999999997 5.967801269531251 1.6346249999999998 Q 5.932926269531252 1.6128749999999998 5.8811762695312515 1.6128749999999998 Q 5.820426269531252 1.6128749999999998 5.785176269531251 1.6469999999999998 Q 5.749926269531252 1.6811249999999998 5.747676269531252 1.756125 Q 5.745426269531252 1.8176249999999998 5.747676269531252 1.8821249999999998 Q 5.749926269531252 1.9571249999999998 5.785176269531251 1.9912499999999997 Q 5.820426269531252 2.025375 5.8811762695312515 2.025375 Q 5.932926269531252 2.025375 5.967801269531251 2.003625 Q 6.002676269531252 1.9818749999999998 6.015426269531251 1.9233749999999998 Q 6.017676269531251 1.913625 6.0225512695312515 1.9098749999999998 Q 6.027426269531252 1.9061249999999998 6.034176269531252 1.9061249999999998 L 6.075426269531252 1.9061249999999998 Q 6.082176269531252 1.9061249999999998 6.087051269531251 1.9102499999999998 Q 6.0919262695312515 1.9143749999999997 6.0911762695312515 1.9211249999999997 Q 6.089676269531251 1.9526249999999998 6.076176269531252 1.9826249999999999 Q 6.062676269531251 2.012625 6.036801269531251 2.036625 Q 6.010926269531252 2.060625 5.971926269531251 2.074875 Q 5.932926269531252 2.0891249999999997 5.8811762695312515 2.0891249999999997 Z M 6.216392211914064 2.081625 Q 6.208142211914065 2.081625 6.203642211914064 2.0767499999999997 Q 6.199142211914064 2.071875 6.199142211914064 2.0643749999999996 L 6.199142211914064 1.5746249999999997 Q 6.199142211914064 1.5663749999999999 6.203642211914064 1.5614999999999997 Q 6.208142211914065 1.556625 6.216392211914064 1.556625 L 6.2538922119140645 1.556625 Q 6.262142211914065 1.556625 6.267017211914064 1.5614999999999997 Q 6.271892211914064 1.5663749999999999 6.271892211914064 1.5746249999999997 L 6.271892211914064 1.7606249999999999 L 6.472142211914065 1.568625 Q 6.475142211914064 1.5656249999999998 6.482267211914064 1.5611249999999999 Q 6.489392211914065 1.556625 6.501392211914064 1.556625 L 6.541892211914065 1.556625 Q 6.547892211914064 1.556625 6.552392211914064 1.5611249999999999 Q 6.5568922119140645 1.5656249999999998 6.5568922119140645 1.5716249999999998 Q 6.5568922119140645 1.5776249999999998 6.553892211914064 1.581375 L 6.3221422119140644 1.807875 L 6.568892211914064 2.0561249999999998 Q 6.572642211914064 2.060625 6.572642211914064 2.0666249999999997 Q 6.572642211914064 2.072625 6.568142211914065 2.0771249999999997 Q 6.563642211914065 2.081625 6.5576422119140645 2.081625 L 6.515642211914065 2.081625 Q 6.502892211914064 2.081625 6.496142211914065 2.0767499999999997 Q 6.489392211914065 2.071875 6.4863922119140645 2.068875 L 6.271892211914064 1.8581249999999998 L 6.271892211914064 2.0643749999999996 Q 6.271892211914064 2.071875 6.267017211914064 2.0767499999999997 Q 6.262142211914065 2.081625 6.2538922119140645 2.081625 L 6.216392211914064 2.081625 Z M 6.674606323242189 2.081625 Q 6.66635632324219 2.081625 6.66185632324219 2.0767499999999997 Q 6.6573563232421895 2.071875 6.6573563232421895 2.0643749999999996 L 6.6573563232421895 1.5738749999999997 Q 6.6573563232421895 1.5663749999999999 6.66185632324219 1.5614999999999997 Q 6.66635632324219 1.556625 6.674606323242189 1.556625 L 6.71435632324219 1.556625 Q 6.722606323242189 1.556625 6.7271063232421895 1.5614999999999997 Q 6.73160632324219 1.5663749999999999 6.73160632324219 1.5738749999999997 L 6.73160632324219 2.0643749999999996 Q 6.73160632324219 2.071875 6.7271063232421895 2.0767499999999997 Q 6.722606323242189 2.081625 6.71435632324219 2.081625 L 6.674606323242189 2.081625 Z M 6.88681823730469 2.081625 Q 6.87856823730469 2.081625 6.87406823730469 2.0767499999999997 Q 6.86956823730469 2.071875 6.86956823730469 2.0643749999999996 L 6.86956823730469 1.5746249999999997 Q 6.86956823730469 1.5663749999999999 6.87406823730469 1.5614999999999997 Q 6.87856823730469 1.556625 6.88681823730469 1.556625 L 6.92131823730469 1.556625 Q 6.93031823730469 1.556625 6.93481823730469 1.5607499999999999 Q 6.93931823730469 1.5648749999999998 6.94006823730469 1.5671249999999999 L 7.18906823730469 1.9496249999999997 L 7.18906823730469 1.5746249999999997 Q 7.18906823730469 1.5663749999999999 7.19356823730469 1.5614999999999997 Q 7.19806823730469 1.556625 7.20631823730469 1.556625 L 7.24231823730469 1.556625 Q 7.25056823730469 1.556625 7.25544323730469 1.5614999999999997 Q 7.26031823730469 1.5663749999999999 7.26031823730469 1.5746249999999997 L 7.26031823730469 2.063625 Q 7.26031823730469 2.071125 7.25544323730469 2.0763749999999996 Q 7.25056823730469 2.081625 7.24306823730469 2.081625 L 7.20706823730469 2.081625 Q 7.19881823730469 2.081625 7.19469323730469 2.0771249999999997 Q 7.19056823730469 2.072625 7.18906823730469 2.071125 L 6.94081823730469 1.6923749999999997 L 6.94081823730469 2.0643749999999996 Q 6.94081823730469 2.071875 6.93594323730469 2.0767499999999997 Q 6.93106823730469 2.081625 6.92281823730469 2.081625 L 6.88681823730469 2.081625 Z M 7.589527954101565 2.0891249999999997 Q 7.522777954101565 2.0891249999999997 7.476652954101565 2.0643749999999996 Q 7.430527954101565 2.039625 7.406152954101565 1.9946249999999999 Q 7.381777954101565 1.9496249999999997 7.378777954101565 1.8888749999999999 Q 7.378027954101565 1.8558749999999997 7.378027954101565 1.8187499999999999 Q 7.378027954101565 1.7816249999999998 7.378777954101565 1.7478749999999998 Q 7.381777954101565 1.6871249999999998 7.406152954101565 1.6424999999999998 Q 7.430527954101565 1.5978749999999997 7.477027954101565 1.5734999999999997 Q 7.523527954101565 1.5491249999999999 7.589527954101565 1.5491249999999999 Q 7.642027954101565 1.5491249999999999 7.681027954101565 1.5641249999999998 Q 7.720027954101566 1.579125 7.745152954101565 1.6019999999999999 Q 7.770277954101565 1.6248749999999998 7.782652954101565 1.649625 Q 7.795027954101565 1.674375 7.795777954101565 1.6931249999999998 Q 7.796527954101565 1.6998749999999998 7.792027954101565 1.7039999999999997 Q 7.787527954101566 1.708125 7.780027954101565 1.708125 L 7.735777954101565 1.708125 Q 7.728277954101565 1.708125 7.724902954101565 1.7051249999999998 Q 7.721527954101565 1.7021249999999999 7.718527954101566 1.6946249999999998 Q 7.711777954101565 1.6751249999999998 7.696402954101565 1.6563749999999997 Q 7.681027954101565 1.6376249999999999 7.655152954101565 1.6252499999999999 Q 7.629277954101565 1.6128749999999998 7.589527954101565 1.6128749999999998 Q 7.529527954101566 1.6128749999999998 7.493152954101565 1.6451249999999997 Q 7.4567779541015655 1.6773749999999998 7.453777954101565 1.7516249999999998 Q 7.451527954101565 1.8183749999999999 7.453777954101565 1.885125 Q 7.4567779541015655 1.960125 7.493527954101565 1.9927499999999998 Q 7.530277954101566 2.025375 7.589527954101565 2.025375 Q 7.629277954101565 2.025375 7.660402954101565 2.010375 Q 7.6915279541015655 1.995375 7.709527954101565 1.9649999999999999 Q 7.727527954101565 1.9346249999999998 7.727527954101565 1.8873749999999998 L 7.727527954101565 1.8558749999999997 L 7.615027954101565 1.8558749999999997 Q 7.607527954101565 1.8558749999999997 7.602652954101565 1.8509999999999998 Q 7.5977779541015655 1.8461249999999998 7.5977779541015655 1.837875 L 7.5977779541015655 1.813875 Q 7.5977779541015655 1.8056249999999998 7.602652954101565 1.8007499999999999 Q 7.607527954101565 1.7958749999999999 7.615027954101565 1.7958749999999999 L 7.7845279541015655 1.7958749999999999 Q 7.792777954101565 1.7958749999999999 7.797277954101565 1.8007499999999999 Q 7.801777954101565 1.8056249999999998 7.801777954101565 1.813875 L 7.801777954101565 1.8858749999999997 Q 7.801777954101565 1.9473749999999999 7.776652954101565 1.9931249999999998 Q 7.751527954101565 2.038875 7.703527954101565 2.064 Q 7.655527954101565 2.0891249999999997 7.589527954101565 2.0891249999999997 Z" fill="#1192dc" fill-rule="nonzero"></path></g><g clip-path="url(&quot;#SvgjsClipPath1002&quot;)"><g clip-path="url(&quot;#SvgjsClipPath1000&quot;)"><path d=" M -2.087061298697823 1.0409716090665755 L -2.087061298697823 0.13755032907334608 C -1.5882397795258116 0.13772603233157443 -1.1839582058931688 0.5421500589499977 -1.1839582368377326 1.0409716090665755 Z M -2.087061298697823 -0.2770878984120983 C -1.3593141839513474 -0.2767366054709203 -0.7694955816254376 0.3132244307121015 -0.769320009352271 1.040971609066578 L -0.3556364362662725 1.040971609066578 L -0.35754574506512027 0.9620535120470888 C -0.39920905080682 0.036864918549033066 -1.160935554482009 -0.692066000607305 -2.087061298697823 -0.6929989984301126 Z" fill="#202020" transform="matrix(1,0,0,1,0,0)" fill-rule="evenodd"></path></g><g clip-path="url(&quot;#SvgjsClipPath1000&quot;)"><path d=" M -0.7696382274854421 1.0409716090665755 C -0.7696381434919672 1.7686673045290402 -1.3593656911045051 2.3586797433169213 -2.087061300216615 2.359031116545978 C -2.8149326884556958 2.358855450701987 -3.40494514033324 1.7688429988244454 -3.4051208061764973 1.0409716090665755 C -3.4049451403335054 0.3131002193092127 -2.814932688456198 -0.2769122325685553 -2.0870612986983255 -0.2770878984120983 L -2.087061298697823 -0.2770878984120983 L -2.087061298697823 0.13659567467391487 L -2.087061298697823 0.13659567467391487 C -2.326634267724608 0.13659565980144628 -2.5563903032766504 0.2317874258598872 -2.7257641312860708 0.4012209345697979 C -2.895137959295481 0.5706544432797112 -2.9902487766851253 0.8004440005128131 -2.990164360557914 1.0400169546671443 C -2.990502258410683 1.2797552430024726 -2.8955033628523292 1.5097901801287212 -2.726102047888369 1.6794302566359642 C -2.556700732924408 1.8490703331432077 -2.3267998251570297 1.9443931271838555 -2.087061298697784 1.9443928890598026 C -1.8474331985817318 1.9444773394994297 -1.617595390407022 1.8493228475123777 -1.4481527253295177 1.679880182434886 C -1.2787100602520334 1.5104375173573914 -1.1835555682649792 1.2805997091826742 -1.1836400187046112 1.0409716090665755 Z" fill="#1192dc" transform="matrix(1,0,0,1,0,0)" fill-rule="evenodd"></path></g><g clip-path="url(&quot;#SvgjsClipPath1000&quot;)"><path d=" M -2.087061298697823 1.0409716090665755 L -2.087061298697823 2.77335112589755 C -3.0135114774653085 2.773253597677569 -3.775852390792902 2.0441432888117346 -3.817213288596799 1.1186168335534874 L -3.8191225973956464 1.0400169546671467 Z" fill="#facf0e" transform="matrix(1,0,0,1,0,0)" fill-rule="evenodd"></path></g></g></g><defs><clipPath id="SvgjsClipPath1002"><path d=" M -3.82007725179509 -0.6917261258975451 h 3.46507725179509 v 3.46507725179509 h -3.46507725179509 Z"></path></clipPath><clipPath id="SvgjsClipPath1000"><path d=" M -3.82007725179509 -0.6917261258975451 L -0.355 -0.6917261258975451 L -0.355 2.7733511258975447 L -3.82007725179509 2.7733511258975447 Z"></path></clipPath></defs></svg>
